<svg width="30" height="30" viewBox="0 0 30 30" fill="none" xmlns="http://www.w3.org/2000/svg">
    <path d="M15 3C11.4099 3 5 7 5 7C5.22651 16.5303 9.01109 27.0751 15 27C15.0066 26.9999 15.0129 27.0001 15.0195 27C16.7028 26.9785 18.1927 26.1029 19.4082 24.8281C20.6237 23.5534 21.6215 21.8573 22.4414 19.9531C24.0812 16.1448 25 11.4966 25 7.66602V7.11719L24.5371 6.82227C24.5371 6.82227 23.055 5.88001 21.1582 4.9375C19.2614 3.99499 16.9988 3 15.0059 3H15ZM15 5H15.0059C16.2417 5 18.4768 5.83773 20.2695 6.72852C21.7686 7.4734 22.5782 7.99473 22.9395 8.21875C22.859 11.6386 22.0412 15.8231 20.6035 19.1621C19.8483 20.916 18.9367 22.4239 17.9609 23.4473C16.9871 24.4686 16.0077 24.9852 15 25V5Z" fill="white"/>
</svg>
