<svg width="31" height="28" viewBox="0 0 31 28" fill="none" xmlns="http://www.w3.org/2000/svg">
<path d="M29.2034 15.7186C29.2034 21.0367 29.2034 23.6958 27.5512 25.3478C25.8992 27 23.2401 27 17.922 27H12.2814C6.96327 27 4.30424 27 2.65211 25.3478C1 23.6958 1 21.0367 1 15.7186C1 10.4005 1 7.7415 2.65211 6.08937C4.30424 4.43726 6.96327 4.43726 12.2814 4.43726H17.922C23.2401 4.43726 25.8992 4.43726 27.5512 6.08937C28.4872 7.02522 28.8929 8.28413 29.0687 10.1664" stroke="#374151" stroke-width="2" stroke-linecap="round"/>
<path d="M3.8031 5.23052C3.96165 3.91762 4.29264 3.01033 4.98368 2.3217C6.31001 1 8.44471 1 12.7141 1H17.2425C21.5119 1 23.6466 1 24.9729 2.3217C25.664 3.01033 25.9949 3.91762 26.1535 5.23052" stroke="#374151" stroke-width="2"/>
<path d="M22.8576 12.8985C24.0258 12.8985 24.9728 11.9515 24.9728 10.7832C24.9728 9.615 24.0258 8.66797 22.8576 8.66797C21.6893 8.66797 20.7423 9.615 20.7423 10.7832C20.7423 11.9515 21.6893 12.8985 22.8576 12.8985Z" stroke="#374151" stroke-width="2"/>
<path d="M1 16.4239L3.47004 14.2627C4.75508 13.1383 6.69184 13.2028 7.89924 14.4102L13.9485 20.4594C14.9175 21.4286 16.443 21.5607 17.5644 20.7726L17.9849 20.4771C19.5984 19.3431 21.7815 19.4745 23.2475 20.7939L27.7932 24.8849" stroke="#374151" stroke-width="2" stroke-linecap="round"/>
</svg>
