<svg width="78" height="74" viewBox="0 0 78 74" fill="none" xmlns="http://www.w3.org/2000/svg">
    <path d="M78 51.0649C78 44.9437 75.6163 39.1894 71.2879 34.8616C66.8192 30.3927 60.9483 28.1592 55.0781 28.1606C59.0306 18.121 54.5223 6.57135 44.616 1.94604C39.6274 -0.382986 34.0303 -0.629783 28.8556 1.25044C23.6806 3.13128 19.5482 6.91428 17.2191 11.9034L1.93296 44.6462C-2.87318 54.9444 1.59369 67.234 11.8904 72.0414C14.6639 73.3366 17.6254 73.9882 20.598 73.9882C22.9721 73.9882 25.3531 73.5726 27.6507 72.7374C31.5687 71.3135 34.8881 68.7978 37.2808 65.4947C37.7802 66.1086 38.3132 66.7008 38.8804 67.268C43.2093 71.5974 48.9642 73.9819 55.0849 73.9819C61.2056 73.9819 66.9601 71.5974 71.2887 67.268L71.2882 67.2683C75.6163 62.9403 78 57.186 78 51.0649ZM25.9126 67.9561C22.0154 69.3726 17.8 69.1866 14.0428 67.4317C6.2874 63.8107 2.92304 54.5543 6.54288 46.7979L13.1101 32.7307L33.8517 42.4154C32.748 45.1253 32.1686 48.0503 32.1685 51.0645C32.1685 54.4519 32.8996 57.7264 34.2851 60.7094C32.4792 64.0822 29.5358 66.6393 25.9126 67.9561ZM15.2621 28.1213L21.8289 14.0555C23.5831 10.298 26.6957 7.44839 30.5934 6.03221C34.4908 4.61541 38.7066 4.80157 42.464 6.55596C50.2197 10.1772 53.5836 19.4334 49.9625 27.1903L49.147 28.9378C45.3841 29.9409 41.8284 31.9146 38.8819 34.8607C37.9214 35.821 37.0573 36.8518 36.293 37.9411L15.2621 28.1213ZM37.2558 51.0649C37.256 46.3024 39.1108 41.8254 42.4786 38.458C45.9544 34.9828 50.5189 33.2455 55.0842 33.2455C58.8471 33.2455 62.6101 34.4277 65.763 36.789L40.8061 61.7452C38.5026 58.6794 37.2558 54.9682 37.2558 51.0649ZM67.6903 63.6711C64.323 67.0395 59.8461 68.8947 55.0846 68.8947C51.1814 68.8947 47.4699 67.6475 44.4032 65.3427L69.3621 40.3845C71.6659 43.4504 72.9126 47.1617 72.9126 51.0649C72.9126 55.827 71.0582 60.3037 67.6909 63.6707L67.6903 63.6711Z" fill="white"/>
</svg>
