<svg width="22" height="22" viewBox="0 0 22 22" fill="none" xmlns="http://www.w3.org/2000/svg">
    <g clip-path="url(#clip0_555_700)">
        <path fill-rule="evenodd" clip-rule="evenodd" d="M11 11C8.56185 11 6.57906 9.02658 6.57906 6.59998C6.57906 4.17338 8.56185 2.19998 11 2.19998C13.4382 2.19998 15.421 4.17338 15.421 6.59998C15.421 9.02658 13.4382 11 11 11ZM15.1535 11.7403C16.9075 10.3356 17.9298 8.06402 17.5541 5.57692C17.1175 2.69162 14.7059 0.382775 11.7947 0.0461745C7.77714 -0.419125 4.36858 2.69388 4.36858 6.59998C4.36858 8.67898 5.33677 10.5314 6.84652 11.7403C3.13734 13.1274 0.429509 16.3845 0.00509747 20.7801C-0.0567951 21.4302 0.452724 22 1.10923 22C1.6718 22 2.15148 21.5776 2.20121 21.0199C2.64441 16.1106 6.421 13.2 11 13.2C15.579 13.2 19.3556 16.1106 19.7988 21.0199C19.8485 21.5776 20.3282 22 20.8908 22C21.5473 22 22.0568 21.4302 21.9949 20.7801C21.5705 16.3845 18.8627 13.1274 15.1535 11.7403Z" fill="#888888"/>
    </g>
    <defs>
        <clipPath id="clip0_555_700">
            <rect width="22" height="22" fill="white"/>
        </clipPath>
    </defs>
</svg>
